<?xml version="1.0" encoding="UTF-8" standalone="no"?>
<!DOCTYPE svg PUBLIC "-//W3C//DTD SVG 1.1//EN" "http://www.w3.org/Graphics/SVG/1.1/DTD/svg11.dtd">
<svg width="100%" height="100%" viewBox="420 740 1160 500" version="1.1" xmlns="http://www.w3.org/2000/svg" xmlns:xlink="http://www.w3.org/1999/xlink" xml:space="preserve" xmlns:serif="http://www.serif.com/" style="fill-rule:evenodd;clip-rule:evenodd;stroke-linejoin:round;stroke-miterlimit:2;">
    <g id="Sfondo" transform="matrix(1.957031,0,0,1.957031,-2,-2)">
        <path d="M271.5,408.04C297.364,408.04 324.788,403.954 339.782,433.357C340.799,435.35 348.13,452.042 339.241,469.364C329.355,488.633 308.08,492.462 315.524,495.457C319.338,496.992 342.712,503.676 351.645,529.45C360.545,555.126 350.326,602.53 297.499,603.401C239.941,604.349 236.1,604.061 237.899,599.635C240.402,593.481 255.654,601.23 256.463,586.498C256.504,585.755 256.727,427.346 256.348,423.515C254.993,409.862 233.886,417.888 237.968,409.708C238.983,407.675 239.703,408.04 271.5,408.04Z" style="fill:rgb(66,66,66);"/>
        <path d="M794.03,487.484C790.433,528.383 735.156,543.355 728.409,545.183C724.008,546.375 716.216,545.626 719.973,571.43C723.973,598.901 754.849,602.049 773.158,560.348C773.424,559.742 776.11,553.624 777.435,553.272C786.904,550.753 768.855,587.65 754.236,598.15C721.862,621.401 686.245,592.216 705.966,529.626C718.81,488.861 758.147,450.749 785.307,466.819C793.431,471.626 793.962,485.691 794.03,487.484Z" style="fill:rgb(210,140,69);"/>
        <path d="M418.502,591.951C443.296,591.004 442.22,561.738 446.788,557.872C452.527,553.013 452.019,566.018 446.58,580.53C434.194,613.575 398.592,615.818 378.94,582.261C366.644,561.265 367.732,529.715 369.347,519.478C378.959,458.57 419.061,457.969 434.216,468.903C436.588,470.614 449.151,479.678 450.829,501.457C452.441,522.365 454.584,528.119 441.5,528.127C391.804,528.156 390.878,527.557 388.82,530.689C387.515,532.674 384.616,591.099 418.502,591.951Z" style="fill:rgb(66,66,66);"/>
        <path d="M333.962,547.5C333.998,551.813 334.268,584.055 307.486,594.467C297.263,598.442 278.4,598.629 276.256,583.547C275.839,580.615 275.796,580.616 275.814,516.5C275.814,514.126 271.982,496.34 298.479,498.969C314.362,500.544 322.525,511.301 323.935,513.158C334.398,526.946 333.824,539.524 333.962,547.5Z" style="fill:rgb(210,140,69);"/>
        <path d="M613.5,464.966C614.318,464.982 622.837,465.147 623.633,466.383C629.012,474.745 608.062,472.24 602.551,472.876C596.087,473.623 596.577,480.52 586.759,522.555C572.299,584.468 570.602,588.762 578.585,590.108C598.952,593.542 601.122,547.445 608.426,553.604C609.665,554.649 610.973,555.752 604.438,573.477C588.03,617.985 559.121,610.488 555.478,590.503C553.38,578.997 576.264,493.763 579.062,477.425C580.683,467.958 562.76,476.478 561.967,469.455C561.282,463.39 574.768,464.969 575.512,464.959C584.303,464.833 583.343,460.184 589.131,434.413C591.327,424.632 594.536,426.823 604.543,427.072C610.782,427.228 606.501,436.109 601.328,460.472C600.03,466.581 610.434,464.989 613.5,464.966Z" style="fill:rgb(210,140,69);"/>
        <path d="M544.941,480.499C544.922,481.909 544.742,494.764 531.431,491.821C523.518,490.071 524.692,475.367 513.416,479.267C500.836,483.617 498.095,510.541 497.79,513.538C496.855,522.721 495.956,587.121 498.451,592.525C501.346,598.795 521.598,595.209 516.092,602.16C514.397,604.3 465.014,603.906 463.591,602.413C458.042,596.592 475.916,598.048 477.789,591.6C479.912,584.294 479.194,584.134 478.888,496.5C478.823,478.149 465.815,488.098 463.307,482.616C463.105,482.174 461.713,479.133 467.432,478.153C488.731,474.505 490.756,459.487 495.344,465.599C496.821,467.566 493.564,490.917 500.366,482.4C501.919,480.456 513.268,458.207 534.505,464.485C544.459,467.428 544.885,478.971 544.941,480.499Z" style="fill:rgb(66,66,66);"/>
        <path d="M654.497,479.05C637.696,480.555 633.226,517.08 626.486,516.769C624.06,516.657 621.1,514.364 634.444,487.47C650.118,455.881 683.584,454.128 677.664,487.529C676.741,492.738 665.785,538.171 665.027,542.433C661.871,560.184 646.735,598.284 665.463,589.429C676.944,584.001 684.285,554.728 687.437,553.376C693.109,550.943 692.617,556.866 685.097,574.33C666.108,618.432 634.269,610.927 637.438,587.492C640.966,561.394 661.92,489.718 659.536,482.487C658.246,478.575 655.118,479.107 654.497,479.05Z" style="fill:rgb(210,140,69);"/>
        <path d="M721.056,427.48C720.914,429.101 719.345,447.004 713.51,446.367C694.453,444.286 688.451,432.25 684.536,435.542C673.543,444.787 665.816,434.652 662.732,436.832C650.36,445.58 637.947,448.343 635.834,444.326C629.008,431.352 631.713,401.538 639.542,402.097C652.348,403.012 663.026,411.814 664.726,413.215C667.639,415.617 673.647,407.434 682.349,410.887C685.99,412.331 686.174,414.468 689.776,411.851C695.175,407.928 714.797,396.921 717.558,405.478C721.903,418.94 720.999,425.278 721.056,427.48Z" style="fill:rgb(66,66,66);"/>
        <path d="M660.397,417.853C664.366,419.489 662.953,420.631 662.674,420.72C662.166,420.883 650.454,417.88 650.415,417.541C650.324,416.747 650.758,415.432 660.397,417.853Z" style="fill:rgb(236,236,236);"/>
        <path d="M692.58,417.761C693.396,417.567 703.211,415.225 703.019,416.798C702.901,417.762 702.684,418.05 691.511,420.671C691.27,420.728 688.425,419.597 692.58,417.761Z" style="fill:rgb(234,234,234);"/>
        <path d="M693.584,431.13C690.595,429.927 689.177,430.677 689.773,428.595C689.812,428.458 690.594,427.616 691.435,427.863C701.444,430.805 701.598,430.218 702.244,430.84C705.169,433.655 694.262,431.278 693.584,431.13Z" style="fill:rgb(250,250,250);"/>
        <path d="M650.837,432.091C650.84,431.26 650.843,430.329 660.484,428.237C664.702,427.321 658.981,433.751 650.837,432.091Z" style="fill:rgb(243,243,243);"/>
    </g>
</svg>
